<?xml version="1.0" encoding="UTF-8"?>
<svg width="25px" height="18px" viewBox="0 0 25 18" version="1.1" xmlns="http://www.w3.org/2000/svg" xmlns:xlink="http://www.w3.org/1999/xlink">
    <!-- Generator: Sketch 43.2 (39069) - http://www.bohemiancoding.com/sketch -->
    <title>Shape</title>
    <desc>Created with Sketch.</desc>
    <defs></defs>
    <g id="Home" stroke="none" stroke-width="1" fill="none" fill-rule="evenodd">
        <g id="Desktop-Copy" transform="translate(-195.000000, -4336.000000)" fill-rule="nonzero" fill="#000000">
            <g id="Group-10" transform="translate(0.000000, 4246.000000)">
                <g id="Group-8" transform="translate(41.000000, 50.000000)">
                    <g id="Group-17" transform="translate(2.000000, 40.000000)">
                        <path d="M174.71427,0 L154.714301,0 C153.611239,0 152.714286,0.896953125 152.714286,2.00001563 L152.714286,16.0000312 C152.714286,17.1030469 153.611239,18 154.714301,18 L174.714317,18 C175.817333,18 176.714286,17.1030469 176.714286,15.9999844 L176.714286,2.00001563 C176.714286,0.896953125 175.817333,0 174.71427,0 Z M154.714301,0.999984375 L174.714317,0.999984375 C174.788004,0.999984375 174.852926,1.02684375 174.922067,1.04203125 C173.190551,2.62673437 167.449114,7.87917187 165.439911,9.6894375 C165.282692,9.83104687 165.029286,9.99998437 164.714333,9.99998437 C164.399379,9.99998437 164.145973,9.83104687 163.988239,9.68896875 C161.979223,7.87898437 156.237458,2.62626562 154.506223,1.042125 C154.575504,1.0269375 154.640567,0.999984375 154.714301,0.999984375 Z M153.71427,15.9999844 L153.71427,2.00001563 C153.71427,1.90204688 153.743801,1.81317188 153.770239,1.72364063 C155.095489,2.93657813 159.101614,6.60145312 161.699239,8.963625 C159.110051,11.1877031 155.102895,14.9868281 153.767098,16.2606094 C153.74352,16.1755781 153.71427,16.0924219 153.71427,15.9999844 Z M174.71427,17.0000156 L154.714301,17.0000156 C154.634426,17.0000156 154.563411,16.9721719 154.488833,16.9543594 C155.869161,15.6384844 159.901817,11.8175156 162.445489,9.6414375 C162.777083,9.94223437 163.079989,10.2165 163.31877,10.4316562 C163.730895,10.80375 164.213286,11.0000156 164.714286,11.0000156 C165.215286,11.0000156 165.697676,10.8037031 166.109286,10.432125 C166.348161,10.216875 166.651301,9.942375 166.983083,9.6414375 C169.526895,11.8172812 173.558989,15.6379687 174.939739,16.9543594 C174.865161,16.9721719 174.794239,17.0000156 174.71427,17.0000156 Z M175.714301,15.9999844 C175.714301,16.092375 175.685051,16.1755781 175.66152,16.2606094 C174.325208,14.9861719 170.31852,11.1874687 167.729379,8.96367187 C170.327098,6.6015 174.332614,2.93695313 175.658333,1.72354688 C175.68477,1.81307813 175.714301,1.902 175.714301,1.99996875 L175.714301,15.9999844 L175.714301,15.9999844 Z" id="Shape"></path>
                    </g>
                </g>
            </g>
        </g>
    </g>
</svg>